<svg width="581" height="261" viewBox="0 0 581 261" fill="none" xmlns="http://www.w3.org/2000/svg">
<path d="M112.036 119.013C112.247 109.771 113.599 100.807 115.575 91.782C121.672 63.9491 135.007 38.9844 155.8 19.4962C171.451 4.83025 197.867 -8.10268 217.833 6.22969C224.977 11.3595 229.128 18.5387 230.285 27.7672C231.417 36.8051 228.713 48.9322 221.002 54.7942C219.79 55.7156 216.999 57.157 212.627 59.1182C207.172 61.5618 202.056 65.7125 197.858 70.4177C183.425 86.5785 176.48 106.678 175.955 128.397C175.553 144.997 179.193 160.706 186.874 175.523C191.961 185.327 198.986 193.157 207.951 199.015C211.886 201.584 218.435 204.127 222.392 208.239C232.317 218.551 233.295 235.426 225.471 247.09C220.531 254.455 213.715 258.883 205.023 260.374C183.753 264.017 164.949 251.149 149.444 237.727C131.976 222.602 117.203 204.383 104.746 184.921C104.725 184.886 104.696 184.856 104.662 184.833C104.629 184.81 104.591 184.794 104.551 184.786C104.511 184.779 104.47 184.779 104.43 184.788C104.39 184.797 104.353 184.814 104.32 184.838C91.1587 194.419 76.5162 200.533 60.3926 203.178C51.4079 204.654 43.0433 205.44 35.2987 205.535C26.3283 205.651 17.0652 205.625 7.5093 205.457C7.21077 205.452 7.13758 205.319 7.28971 205.059C19.0186 185.042 29.9078 164.657 39.1954 143.366C43.8312 132.74 47.7753 121.579 51.0276 109.884C53.4087 101.318 54.7994 92.0506 53.9813 83.2423C52.1256 63.2645 39.0705 46.2503 19.2554 41.4497C16.0734 40.6785 10.9238 40.4749 7.81931 38.9411C-0.434824 34.8728 -0.404686 23.3609 7.66861 19.2016C10.2779 17.8542 13.6838 17.8715 16.5686 18.2311C33.7443 20.3584 49.4431 28.6728 60.2118 42.2729C67.7038 51.7397 72.8965 62.619 77.3659 73.7105C81.3746 83.6409 85.3918 93.554 89.1637 103.58C90.3033 106.601 91.3525 109.287 92.3112 111.638C96.218 121.216 98.9248 127.671 100.432 131.001C103.406 137.561 107.75 146.11 113.465 156.65C118.127 165.24 123.682 174.027 130.129 183.01C137.767 193.655 146.693 203.659 155.86 212.996C163.679 220.96 172.433 227.859 182.121 233.693C188.584 237.584 197.893 241.349 204.743 236.548C208.338 234.031 209.682 228.178 206.5 224.872C205.444 223.777 203.78 222.659 201.51 221.518C191.981 216.731 184.14 210.085 177.569 201.718C164.167 184.656 156.349 165.307 154.116 143.67C153.312 135.906 153.309 127.564 154.107 118.644C156.351 93.463 167.231 68.0824 185.918 50.8212C189.446 47.5631 191.903 45.4256 193.29 44.4089C194.587 43.4586 197.963 41.4165 203.417 38.2825C203.899 38.0053 204.701 37.3814 205.824 36.4108C208.877 33.7723 209.277 29.8426 206.689 26.6581C202.22 21.16 194.086 21.9788 188.132 24.6261C172.213 31.6926 159.817 45.7217 151.227 60.587C142.331 75.9881 136.904 92.5662 134.947 110.321C133.606 122.49 133.48 133.861 134.568 144.432C135.375 152.268 136.458 160.102 137.819 167.932C137.825 167.957 137.822 167.982 137.811 168.005C137.8 168.027 137.781 168.045 137.758 168.054C137.735 168.064 137.709 168.065 137.685 168.057C137.662 168.048 137.642 168.032 137.629 168.01C136.338 166.136 135.096 164.199 133.905 162.2C126.994 150.585 120.247 138.843 114.085 126.807C111.146 121.059 108.011 115.417 104.682 109.879C104.662 109.843 104.656 109.8 104.664 109.759C104.673 109.717 104.695 109.68 104.727 109.655C104.759 109.63 104.798 109.619 104.837 109.623C104.876 109.628 104.911 109.648 104.936 109.68L111.614 119.143C111.642 119.183 111.682 119.213 111.729 119.229C111.775 119.244 111.825 119.245 111.871 119.231C111.918 119.216 111.959 119.188 111.989 119.148C112.018 119.109 112.035 119.062 112.036 119.013ZM45.7401 182.611C51.7366 182.089 57.5307 181.15 63.1225 179.795C73.5725 177.261 83.6437 172.152 92.3327 165.827C92.5853 165.642 92.6399 165.411 92.4963 165.134C84.8192 150.069 77.3056 134.844 72.1646 118.679C72.1546 118.65 72.1358 118.625 72.1109 118.608C72.0859 118.591 72.0561 118.582 72.0258 118.583C71.9955 118.584 71.9662 118.594 71.9424 118.613C71.9186 118.632 71.9014 118.658 71.8933 118.688C70.7279 123.035 69.3945 127.315 67.8933 131.53C65.7806 137.454 62.1178 146.539 56.905 158.786C53.4632 166.865 49.6612 174.683 45.499 182.239C45.3469 182.513 45.4272 182.637 45.7401 182.611Z" fill="#E03F1F"/>
<path d="M2.29502 230.878C-2.85698 240.837 0.957032 253.095 10.8139 258.259C20.6707 263.422 32.8378 259.534 37.9898 249.576C43.1418 239.617 39.3277 227.358 29.4709 222.195C19.6141 217.032 7.44703 220.919 2.29502 230.878Z" fill="#E03F1F"/>
<path d="M306.579 137.199V172.695L314.936 174.783V176.175H286.384V174.783L294.741 172.695V137.895L273.153 82.215L264.797 80.127V78.735H294.044V80.127L285.688 82.215L305.465 133.023L324.685 83.607L315.632 80.127V78.735H336.523V80.127L327.47 83.607L306.579 137.199Z" fill="#555555"/>
<path d="M383.273 147.639H354.722L347.758 171.303L356.811 174.783V176.175H335.919V174.783L344.972 171.303L372.131 76.647H374.22L403.468 172.695L411.824 174.783V176.175H382.577V174.783L390.933 172.695L383.273 147.639ZM355.418 144.994H382.437L368.51 98.919L355.418 144.994Z" fill="#555555"/>
<path d="M484.182 83.607L475.129 80.127V78.735H496.02V80.127L486.968 83.607V177.567H484.878L437.525 90.567V171.303L446.578 174.783V176.175H425.687V174.783L434.739 171.303V82.911L425.687 80.127V78.735H444.489L484.182 151.815V83.607Z" fill="#555555"/>
<path d="M552.449 147.639H523.897L516.933 171.303L525.986 174.783V176.175H505.095V174.783L514.148 171.303L541.307 76.647H543.396L572.643 172.695L581 174.783V176.175H551.752V174.783L560.109 172.695L552.449 147.639ZM524.594 144.994H551.613L537.685 98.919L524.594 144.994Z" fill="#555555"/>
</svg>
